<?xml version="1.0" encoding="UTF-8" standalone="no"?>
<!-- Created with Inkscape (http://www.inkscape.org/) -->

<svg
   width="297mm"
   height="210mm"
   viewBox="0 0 297 210"
   version="1.1"
   id="svg5"
   inkscape:version="1.1.1 (3bf5ae0d25, 2021-09-20)"
   sodipodi:docname="happy-new-year-2022.svg"
   xmlns:inkscape="http://www.inkscape.org/namespaces/inkscape"
   xmlns:sodipodi="http://sodipodi.sourceforge.net/DTD/sodipodi-0.dtd"
   xmlns="http://www.w3.org/2000/svg"
   xmlns:svg="http://www.w3.org/2000/svg">
  <sodipodi:namedview
     id="namedview7"
     pagecolor="#ffffff"
     bordercolor="#666666"
     borderopacity="1.0"
     inkscape:pageshadow="2"
     inkscape:pageopacity="0.0"
     inkscape:pagecheckerboard="0"
     inkscape:document-units="mm"
     showgrid="false"
     inkscape:zoom="0.71446409"
     inkscape:cx="396.80091"
     inkscape:cy="449.98763"
     inkscape:window-width="1920"
     inkscape:window-height="991"
     inkscape:window-x="-9"
     inkscape:window-y="-9"
     inkscape:window-maximized="1"
     inkscape:current-layer="layer1" />
  <defs
     id="defs2">
    <style
       id="style37">.a{isolation:isolate;}.b{fill:#ffcb1f;}.c{fill:#006aac;}.d{fill:#bb232d;}.e{fill:#f1f2f2;}.f{fill:#231f20;opacity:0.2;mix-blend-mode:multiply;}.g{fill:#fff;}</style>
  </defs>
  <g
     inkscape:label="Layer 1"
     inkscape:groupmode="layer"
     id="layer1">
    <g
       class="a"
       id="g59"
       transform="matrix(0.13022102,0,0,0.13022102,28.702279,41.507174)">
      <path
         class="b"
         d="m 608.1667,411.5 -123,177 h 92.0179 C 575.1478,652 495.0254,642 414.9029,655 c 1.7217,10.5 2.2844,14.5 2.2844,14.5 C 393.8707,618 305.7148,600.3666 253.6564,634 c -68.1042,44 -77.8558,107.9648 -79.84,141.5 6.0093,-5 17.0261,-4 17.0261,-4 -34.8353,44 -8.7955,154 3.0046,174 60.0918,-110 270.58,-100.5151 434.6637,-149 191.0268,-56.4463 146.2235,-357 154.99,-385 z"
         transform="translate(-173.3714,-54.5)"
         id="path43" />
      <path
         class="c"
         d="m 809.1579,228.5 c 34.8353,-44 8.7955,-154 -3.0046,-174 -60.0918,110 -270.58,100.5151 -434.6637,149 -191.0268,56.4463 -146.2235,357 -154.99,385 h 175.3337 l 123,-177 H 422.8154 C 424.8522,348 504.9746,358 585.0971,345 c -1.7217,-10.5 -2.2844,-14.5 -2.2844,-14.5 23.3166,51.5 111.4725,69.1334 163.5309,35.5 68.1042,-44 77.8558,-107.9648 79.84,-141.5 -6.0089,5 -17.0257,4 -17.0257,4 z"
         transform="translate(-173.3714,-54.5)"
         id="path45" />
      <polygon
         class="d"
         points="126.129,534 249.129,357 527.129,357 404.129,534 "
         id="polygon47" />
      <polygon
         class="e"
         points="172.295,534 295.295,357 480.962,357 357.962,534 "
         id="polygon49" />
      <polygon
         class="c"
         points="218.462,534 341.462,357 434.795,357 311.795,534 "
         id="polygon51" />
      <path
         class="f"
         d="m 683.0076,383.2206 c 22.6489,0 45.1852,-5.4939 63.336,-17.2206 68.1041,-44 77.8556,-107.9648 79.84,-141.5 -4.2921,3.5712 -11.1394,4.0816 -14.7019,4.0816 -1.4254,0 -2.3243,-0.0816 -2.3243,-0.0816 34.8353,-44 8.7955,-154 -3.0045,-174 -60.0918,110 -270.58,100.5151 -434.6636,149 -191.0269,56.4463 -146.2235,357 -154.99,385 h 360.6854 c -2.0361,63.4785 -82.1049,53.5071 -162.2,66.4871 L 414.903,655 l 10e-4,0.007 10e-4,0.006 v 0 c 1.72,10.4894 2.2822,14.4865 2.2822,14.4865 a 69.4737,69.4737 0 0 0 -9.7315,-15.5058 c -0.029,-0.0353 -0.0566,-0.0717 -0.0858,-0.107 q -1.9691,-2.3823 -4.1434,-4.6243 l 0.002,-0.005 C 382.973,628.3587 349.8672,616.779 316.9924,616.779 c -22.6488,0 -45.185,5.4939 -63.3359,17.2206 -68.104,44 -77.8556,107.9648 -79.84,141.5 4.2923,-3.5712 11.1395,-4.0816 14.702,-4.0816 1.4255,0 2.3243,0.0816 2.3243,0.0816 -34.8353,44 -8.7955,154 3.0045,174 60.0918,-110 270.58,-100.5151 434.6636,-149 191.0268,-56.4463 146.2236,-357 154.99,-385 H 422.8154 c 2.036,-63.4785 82.1048,-53.5071 162.2,-66.4871 L 585.097,345 l -10e-4,-0.007 -10e-4,-0.006 v 0 C 583.3747,334.4971 582.8125,330.5 582.8125,330.5 a 69.4773,69.4773 0 0 0 9.7315,15.5058 c 0.0291,0.0353 0.0566,0.0717 0.0858,0.107 q 1.969,2.3823 4.1435,4.6243 l -0.002,0.005 c 20.2556,20.8987 53.3614,32.4784 86.2361,32.4784 z M 593,311 c 0,0 -4.7792,12.3932 -28.2862,16.7 l -1.2186,0.1744 c -10.9608,1.3691 -21.8836,2.4494 -32.5719,3.5065 -5.4887,0.5428 -10.9933,1.0882 -16.4706,1.6764 v 0 c -56.3135,6.048 -109.6678,16.7211 -111.6267,77.8019 L 402.1636,431.5 H 762.163 c -0.0117,5.1207 0.0436,11.15 0.1189,18.3487 0.4574,43.7836 1.2231,117.0641 -16.9951,184.1273 -9.7712,35.9687 -23.9449,65.899 -42.1274,88.96 A 156.0188,156.0188 0 0 1 622.8429,777.32 C 572.7488,792.122 517.3983,801.54 463.87,810.6476 357.809,828.6937 256.7683,845.886 200.8661,902.8806 a 316.16,316.16 0 0 1 -6.1138,-37.4155 c -3.8381,-37.53 0.4521,-67.2544 11.77,-81.5506 l 22.95,-28.987 -32.7875,-2.9791 a 158.7264,158.7264 0 0 1 10.59,-35.28 c 11.6377,-26.69 30.8946,-48.8515 57.2353,-65.8693 13.9933,-9.0406 32.6319,-14.02 52.4825,-14.02 31.6052,0 61.4859,12.2844 76.1248,31.2961 l 6.9951,9.0845 A 63.9552,63.9552 0 0 1 407,689 c 0,0 4.7793,-12.3932 28.2862,-16.7 l 1.2187,-0.1744 c 10.9607,-1.3691 21.8836,-2.4494 32.5718,-3.5065 5.4888,-0.5428 10.9934,-1.0882 16.4707,-1.6764 56.3135,-6.048 109.6678,-16.7211 111.6267,-77.8019 l 0.6622,-20.6412 H 237.837 c 0.0117,-5.1207 -0.0435,-11.15 -0.1188,-18.3487 -0.4574,-43.7836 -1.2231,-117.0641 16.995,-184.1273 9.7712,-35.9687 23.9449,-65.899 42.1274,-88.96 A 156.0188,156.0188 0 0 1 377.1571,222.68 c 50.0941,-14.8022 105.4447,-24.22 158.9728,-33.3278 106.061,-18.0461 207.1016,-35.2384 263.0039,-92.233 a 316.16,316.16 0 0 1 6.1138,37.4155 c 3.8381,37.53 -0.4521,67.2544 -11.77,81.5506 l -22.95,28.987 32.7875,2.9791 a 158.7317,158.7317 0 0 1 -10.59,35.28 c -11.6378,26.69 -30.8946,48.8515 -57.2353,65.8693 -13.9933,9.0406 -32.632,14.02 -52.4825,14.02 -31.6052,0 -61.4858,-12.2844 -76.1248,-31.2961 l -6.9951,-9.0845 A 63.9552,63.9552 0 0 1 593,311 Z"
         transform="translate(-173.3714,-54.5)"
         id="path53" />
      <ellipse
         class="g"
         cx="526.90259"
         cy="155.5"
         rx="32.049"
         ry="32"
         id="ellipse55" />
      <ellipse
         class="g"
         cx="126.3545"
         cy="735.5"
         rx="32.049"
         ry="32"
         id="ellipse57" />
    </g>
    <text
       xml:space="preserve"
       style="font-style:normal;font-weight:normal;font-size:22.5778px;line-height:1.25;font-family:sans-serif;fill:#000000;fill-opacity:1;stroke:none;stroke-width:0.264583"
       x="122.57731"
       y="75.916458"
       id="text1881"><tspan
         sodipodi:role="line"
         id="tspan1879"
         style="font-style:normal;font-variant:normal;font-weight:normal;font-stretch:normal;font-size:22.5778px;font-family:'TH Sarabun New';-inkscape-font-specification:'TH Sarabun New';stroke-width:0.264583"
         x="122.57731"
         y="75.916458">Happy New Year 2022!</tspan><tspan
         sodipodi:role="line"
         style="font-style:normal;font-variant:normal;font-weight:normal;font-stretch:normal;font-size:22.5778px;font-family:'TH Sarabun New';-inkscape-font-specification:'TH Sarabun New';stroke-width:0.264583"
         x="122.57731"
         y="104.43136"
         id="tspan1883" /><tspan
         sodipodi:role="line"
         style="font-style:normal;font-variant:normal;font-weight:normal;font-stretch:normal;font-size:14.1111px;font-family:'TH Sarabun New';-inkscape-font-specification:'TH Sarabun New';stroke-width:0.264583"
         x="122.57731"
         y="132.65361"
         id="tspan1885">We wish you a happy new year.</tspan></text>
    <text
       xml:space="preserve"
       style="font-style:normal;font-weight:normal;font-size:10.5833px;line-height:1.25;font-family:sans-serif;fill:#000000;fill-opacity:1;stroke:none;stroke-width:0.264583"
       x="258.4863"
       y="204.41895"
       id="text17207"><tspan
         sodipodi:role="line"
         id="tspan17205"
         style="font-style:normal;font-variant:normal;font-weight:normal;font-stretch:normal;font-family:'TH Sarabun New';-inkscape-font-specification:'TH Sarabun New';stroke-width:0.264583"
         x="258.4863"
         y="204.41895">PyThaiNLP</tspan></text>
  </g>
</svg>
