<svg xmlns="http://www.w3.org/2000/svg" viewBox="0 0 653.2571 891"><defs><style>.a{isolation:isolate;}.b{fill:#ffcb1f;}.c{fill:#006aac;}.d{fill:#bb232d;}.e{fill:#f1f2f2;}.f{fill:#231f20;opacity:0.2;mix-blend-mode:multiply;}.g{fill:#fff;}</style></defs><title>PyThaiFinal</title><g class="a"><path class="b" d="M608.1667,411.5l-123,177h92.0179C575.1478,652,495.0254,642,414.9029,655c1.7217,10.5,2.2844,14.5,2.2844,14.5C393.8707,618,305.7148,600.3666,253.6564,634c-68.1042,44-77.8558,107.9648-79.84,141.5,6.0093-5,17.0261-4,17.0261-4-34.8353,44-8.7955,154,3.0046,174,60.0918-110,270.58-100.5151,434.6637-149,191.0268-56.4463,146.2235-357,154.99-385Z" transform="translate(-173.3714 -54.5)"/><path class="c" d="M809.1579,228.5c34.8353-44,8.7955-154-3.0046-174-60.0918,110-270.58,100.5151-434.6637,149-191.0268,56.4463-146.2235,357-154.99,385H391.8333l123-177H422.8154C424.8522,348,504.9746,358,585.0971,345c-1.7217-10.5-2.2844-14.5-2.2844-14.5C606.1293,382,694.2852,399.6334,746.3436,366c68.1042-44,77.8558-107.9648,79.84-141.5C820.1747,229.5,809.1579,228.5,809.1579,228.5Z" transform="translate(-173.3714 -54.5)"/><polygon class="d" points="527.129 357 404.129 534 126.129 534 249.129 357 527.129 357"/><polygon class="e" points="480.962 357 357.962 534 172.295 534 295.295 357 480.962 357"/><polygon class="c" points="434.795 357 311.795 534 218.462 534 341.462 357 434.795 357"/><path class="f" d="M683.0076,383.2206c22.6489,0,45.1852-5.4939,63.336-17.2206,68.1041-44,77.8556-107.9648,79.84-141.5-4.2921,3.5712-11.1394,4.0816-14.7019,4.0816-1.4254,0-2.3243-.0816-2.3243-.0816,34.8353-44,8.7955-154-3.0045-174-60.0918,110-270.58,100.5151-434.6636,149-191.0269,56.4463-146.2235,357-154.99,385H577.1847c-2.0361,63.4785-82.1049,53.5071-162.2,66.4871L414.903,655l.0012.0071.0011.0064h0c1.72,10.4894,2.2822,14.4865,2.2822,14.4865a69.4737,69.4737,0,0,0-9.7315-15.5058c-.029-.0353-.0566-.0717-.0858-.107q-1.9691-2.3823-4.1434-4.6243l.0017-.0051c-20.2555-20.8987-53.3613-32.4784-86.2361-32.4784-22.6488,0-45.185,5.4939-63.3359,17.2206-68.104,44-77.8556,107.9648-79.84,141.5,4.2923-3.5712,11.1395-4.0816,14.702-4.0816,1.4255,0,2.3243.0816,2.3243.0816-34.8353,44-8.7955,154,3.0045,174,60.0918-110,270.58-100.5151,434.6636-149,191.0268-56.4463,146.2236-357,154.99-385H422.8154c2.036-63.4785,82.1048-53.5071,162.2-66.4871L585.097,345l-.0012-.0071-.0011-.0064h0c-1.72-10.4894-2.2822-14.4865-2.2822-14.4865a69.4773,69.4773,0,0,0,9.7315,15.5058c.0291.0353.0566.0717.0858.107q1.969,2.3823,4.1435,4.6243l-.0018.0051C617.0271,371.6409,650.1329,383.2206,683.0076,383.2206ZM593,311s-4.7792,12.3932-28.2862,16.7l-1.2186.1744c-10.9608,1.3691-21.8836,2.4494-32.5719,3.5065-5.4887.5428-10.9933,1.0882-16.4706,1.6764h0c-56.3135,6.048-109.6678,16.7211-111.6267,77.8019L402.1636,431.5H762.163c-.0117,5.1207.0436,11.15.1189,18.3487.4574,43.7836,1.2231,117.0641-16.9951,184.1273-9.7712,35.9687-23.9449,65.899-42.1274,88.96A156.0188,156.0188,0,0,1,622.8429,777.32C572.7488,792.122,517.3983,801.54,463.87,810.6476c-106.061,18.0461-207.1017,35.2384-263.0039,92.233a316.16,316.16,0,0,1-6.1138-37.4155c-3.8381-37.53.4521-67.2544,11.77-81.5506l22.95-28.987-32.7875-2.9791a158.7264,158.7264,0,0,1,10.59-35.28c11.6377-26.69,30.8946-48.8515,57.2353-65.8693,13.9933-9.0406,32.6319-14.02,52.4825-14.02,31.6052,0,61.4859,12.2844,76.1248,31.2961l6.9951,9.0845A63.9552,63.9552,0,0,1,407,689s4.7793-12.3932,28.2862-16.7l1.2187-.1744c10.9607-1.3691,21.8836-2.4494,32.5718-3.5065,5.4888-.5428,10.9934-1.0882,16.4707-1.6764,56.3135-6.048,109.6678-16.7211,111.6267-77.8019l.6622-20.6412H237.837c.0117-5.1207-.0435-11.15-.1188-18.3487-.4574-43.7836-1.2231-117.0641,16.995-184.1273,9.7712-35.9687,23.9449-65.899,42.1274-88.96A156.0188,156.0188,0,0,1,377.1571,222.68c50.0941-14.8022,105.4447-24.22,158.9728-33.3278,106.061-18.0461,207.1016-35.2384,263.0039-92.233a316.16,316.16,0,0,1,6.1138,37.4155c3.8381,37.53-.4521,67.2544-11.77,81.5506l-22.95,28.987,32.7875,2.9791a158.7317,158.7317,0,0,1-10.59,35.28c-11.6378,26.69-30.8946,48.8515-57.2353,65.8693-13.9933,9.0406-32.632,14.02-52.4825,14.02-31.6052,0-61.4858-12.2844-76.1248-31.2961l-6.9951-9.0845A63.9552,63.9552,0,0,1,593,311Z" transform="translate(-173.3714 -54.5)"/><ellipse class="g" cx="526.9026" cy="155.5" rx="32.049" ry="32"/><ellipse class="g" cx="126.3545" cy="735.5" rx="32.049" ry="32"/></g></svg>